<svg width="430" height="430" viewBox="0 0 430 430" fill="none" xmlns="http://www.w3.org/2000/svg">
<path d="M0 0H430V430H0V0Z" fill="#F5F5F5"/>
<path d="M32 329V101H130.158C147.036 101 161.804 104.34 174.462 111.02C187.121 117.699 196.966 127.088 203.998 139.186C211.031 151.283 214.547 165.422 214.547 181.602C214.547 197.93 210.92 212.068 203.665 224.018C196.485 235.967 186.38 245.17 173.352 251.627C160.397 258.084 145.259 261.313 127.937 261.313H69.3089V213.219H115.501C122.755 213.219 128.936 211.957 134.044 209.434C139.226 206.836 143.186 203.162 145.925 198.412C148.738 193.662 150.145 188.059 150.145 181.602C150.145 175.07 148.738 169.504 145.925 164.902C143.186 160.227 139.226 156.664 134.044 154.215C128.936 151.691 122.755 150.43 115.501 150.43H93.7373V329H32Z" fill="#333333"/>
<path d="M291.959 261.313V101H341.704V261.313H291.959ZM234.663 205.217V155.342H399V205.217H234.663Z" fill="#FFB143"/>
</svg>
